<mxfile host="drawio-plugin" modified="2023-01-09T19:38:05.777Z" agent="5.0 (Windows NT 6.2; Win64; x64) AppleWebKit/537.36 (KHTML, like Gecko) Chrome/87.0.4280.141 Safari/537.36" etag="pVw7oQ5JzLf2gaB0URSX" version="13.7.9" type="embed" pages="2"><diagram id="fqDff2OOT4ordfgiPYyi" name="Chapter 1"><mxGraphModel dx="582" dy="417" grid="0" gridSize="9" guides="1" tooltips="1" connect="1" arrows="1" fold="1" page="1" pageScale="1" pageWidth="850" pageHeight="300" math="0" shadow="0"><root><mxCell id="0"/><mxCell id="1" parent="0"/><mxCell id="2" value="CAPITAIN ROUGH" style="text;html=1;strokeColor=none;fillColor=none;align=left;verticalAlign=middle;whiteSpace=wrap;rounded=0;" parent="1" vertex="1"><mxGeometry width="195" height="51" as="geometry"/></mxCell><mxCell id="4" value="" style="shape=image;verticalLabelPosition=bottom;labelBackgroundColor=#ffffff;verticalAlign=top;aspect=fixed;imageAspect=0;image=data:image/png,iVBORw0KGgoAAAANSUhEUgAAACAAAAAgCAYAAABzenr0AAAAAXNSR0IArs4c6QAAAARnQU1BAACxjwv8YQUAAAAJcEhZcwAADsMAAA7DAcdvqGQAAAI8SURBVFhH7ZU/SAMxFMZTcdSCuli3LtZBF6uLooJQ0MFJxUlQBP8giJNLFxcR6iKCg4JUEATp6KBQEFRw0bq4WBfHuuhQ3avf494Z09w16Sku/UH6ctck78tL3jtRo8Z/E3Kslnj3QMnp+pK7v/Zdxw/PiXDeGx2jfktHlKwX52c7VYvQTmLnt8+nYmR0hd7BiRcYE0REGRCwOJ4qwSaTGbJ+4H80Z7oVdY41oic+SE3tB8FKwF9gJABnjN3e5a6oAe7jPd+TarCOwNLE1g8bFLq1ugtkmoKMmiWmGVEH5+wMoQwSTsBrmGZF2RHwTlADwOvjs9t08HvehF+90BHiCMhF5zcwLUyedyAopnegbJCJmIO+dqf3zdzNE1nbcqwVsD815DwJMX9y6eY+ch7Ow12N9KwyuZezFmBUB7zKbkOslVoQjATI1Q+hLj680/NH/oUawO6r4Ue4+PzlIwA4Bgb/yc9MNjUjEmuH1Lc5BncgnGcW4rQ77FIVEY37V0R2nkzExEY2TyLkC80pjvREn9OUBLBzhkXYgMuJObORsEgXivRudnWd7PL0MNndowvqw6a310lAvaxSRpdqflBm3DgPEqpzlXr8yOenOpZTTr1octSYts6IEF8RQJh1O1ehc4IAhoXoyB73Oz0hmmKb2tRUj6CQfxORWDNZRi7T7h2AZXSfYt3HSP1UY2EWoF5CGXYO3A7Dk1gEfxW9wDgWAgFAdlAJrQBOQeS732I2Y73wjACotKDNWD1CfAIWHEcY6Npf8AAAAABJRU5ErkJggg==;" parent="1" vertex="1"><mxGeometry x="5" y="39" width="32" height="32" as="geometry"/></mxCell><mxCell id="9" value="After a long journey, Captain Rough finally can see the Palm Tree Island&amp;nbsp;shore in the horizon. And he can't wait to put his hands on the well known Palm treasure.&lt;br&gt;&lt;br&gt;But suddenly a giant creature attacks the ship and Captain have to leave his ship with all his equipments behind or&amp;nbsp;go down with it.&lt;br&gt;&lt;br&gt;For his luck, there was a small island near the wreck side. So without hesitation, he swims towards it, where he believes he will be safe.&lt;br&gt;&lt;br&gt;He believes ...&lt;br&gt;&lt;br&gt;Turns out that the island is actually home of the crabby crew, and he will have to go past this island if he want to get closer to the Palm Tree Island." style="text;html=1;strokeColor=none;fillColor=none;align=left;verticalAlign=top;whiteSpace=wrap;rounded=0;fontSize=10;" parent="1" vertex="1"><mxGeometry x="40" y="39" width="306" height="202" as="geometry"/></mxCell><mxCell id="yPRvAj-rE7e2RHCMa9x3-9" value="" style="shape=image;verticalLabelPosition=bottom;labelBackgroundColor=#ffffff;verticalAlign=top;aspect=fixed;imageAspect=0;image=data:image/png,iVBORw0KGgoAAAANSUhEUgAAACAAAAAgCAYAAABzenr0AAAAAXNSR0IArs4c6QAAAARnQU1BAACxjwv8YQUAAAAJcEhZcwAADsMAAA7DAcdvqGQAAAHdSURBVFhH7ZS9SgNBEMc34VoDIhYR0omCaGOsEkznI9hYCKKgja3gEwg+gRZBsPUtlFgZQRRB24CpRIgPoP43M8ns3n7cRcTmfhB2dud79jaqoKCg4L8p0Rqkvrr+RaLq3t8YPiFdbhBMBgTYS6Q+pMtKmdYRV/t1oytmrd4iKU1IFyNVAGg3FlJF3HWvSUoT0sVwFiDBvaLDh8M93am855AuK2V0yj+M30dlZYqkNCEd4Pi0NUjspIPHT5Lc+AIBqeNpcGOb5119bpO4Eu7evhoBsM425pX6CYLvQ3aMwLYOMXeV0n6hqYIEyWxkcgR12YRAEW1l+g2nMCxKUnKNDXDy2P2GwHRiE9CvAIn+AsRFEbgS309PgDuVH8ok3SMgYD/sY9dXxthhBGOMyzUNDuwjpg9h3DmJGi7kN9+AxFUkGh8VIOFrsXGN02UnCV0Bpu8tgEQD/s//eDlW04snet3Y6uizLMhXxiS0OtmpVtTcclW9PfXVRX9gJWyps+0Zkse2APbsB+DrI9cEZELm4PKdpDiuCXgLqDWPaDem1zklaYzLzgV8cxdQay7RyZBe55kkE9tOwj4TFQBcXecBcXzJgfMQoAh+YnhKvgA+svoHgyIIibkLAHF/pb4By5wv6M1qRS8AAAAASUVORK5CYII=;" parent="1" vertex="1"><mxGeometry x="5" y="475.0002898550725" width="32" height="32" as="geometry"/></mxCell><mxCell id="yPRvAj-rE7e2RHCMa9x3-10" value="The crabs will try to take Captain Rough down and protect their island against any invasor." style="text;html=1;strokeColor=none;fillColor=none;align=left;verticalAlign=top;whiteSpace=wrap;rounded=0;fontSize=10;" parent="1" vertex="1"><mxGeometry x="40" y="475" width="306" height="42" as="geometry"/></mxCell><mxCell id="10" value="The sharks will try to take Captain Rough down and protect their island against any invasor." style="text;html=1;strokeColor=none;fillColor=none;align=left;verticalAlign=top;whiteSpace=wrap;rounded=0;fontSize=10;" parent="1" vertex="1"><mxGeometry x="40" y="644" width="306" height="42" as="geometry"/></mxCell><mxCell id="11" value="" style="shape=image;verticalLabelPosition=bottom;labelBackgroundColor=#ffffff;verticalAlign=top;aspect=fixed;imageAspect=0;image=data:image/png,iVBORw0KGgoAAAANSUhEUgAAACAAAAAeCAYAAABNChwpAAAAAXNSR0IArs4c6QAAAARnQU1BAACxjwv8YQUAAAAJcEhZcwAADsMAAA7DAcdvqGQAAAG9SURBVFhH7ZS/L0RBEMeXTutVFOIqGgmOUKCTEJFoNFqVSPQKceI/kIjKX6CRiFD7kRDOSSTiqhMFhTxKJfmOnTP3sm93HicK90kuM5Obm/nu7OyZBg3+miZrVeT7R9+tG6R4dayqrRaA5hOTSzbyE99VzEVlTyVCJYCbt3W1UvxUfiHrg0VIXIKarf1VBnPT9HFdYVCAHD1Orjk9g6aAJ4E6SRHqCfD4641aQJaTu8AUDg82bPRFcAld9+aDrwtLCHj8aS9CJWCnIyI/GuokC+Lze4phJbMPMYmQAnzP0StANkfhEDJXLqBPgGoHUPCyeES+z2pEJgkKuH1ut56OrPmpo+HlW2vpoXjqZNMM5MeqsWT17YYmsD+yWI1xBbyAkuR1eAVwEdkUxZMkv+f7j7pzZBk8w28JkHBxicxJaw4yCQB8Dfy20+AnlwTC+Leu5sArAECEFOD6N3NNheHppD1FlQDrEli21/KyjT4Znzu1npu05kAlYHdhxUbGXJcerVdLb1/t8+O8wtl2/QTMbK2TDYH8ugooDM/bKFxQ5iMX/EgAQFFeNCyVryDIkq8SAFDUukEBIGv+f8WYD3tA/8QS2WEVAAAAAElFTkSuQmCC;" parent="1" vertex="1"><mxGeometry x="5" y="644.0002898550724" width="34" height="32" as="geometry"/></mxCell><mxCell id="12" value="&lt;b&gt;Crabby Island&lt;/b&gt;" style="text;html=1;strokeColor=none;fillColor=none;align=left;verticalAlign=middle;whiteSpace=wrap;rounded=0;fontSize=16;" parent="1" vertex="1"><mxGeometry x="5" y="441" width="113" height="20" as="geometry"/></mxCell><mxCell id="13" value="&lt;b&gt;Water Island&lt;/b&gt;" style="text;html=1;strokeColor=none;fillColor=none;align=left;verticalAlign=middle;whiteSpace=wrap;rounded=0;fontSize=16;" parent="1" vertex="1"><mxGeometry x="5" y="612" width="113" height="20" as="geometry"/></mxCell><mxCell id="14" value="The first map will be a type of tutorial map, explaining the movement keys and the collectable keys. &lt;br&gt;Every map will have keys to open chests, and inside those chests there will be health or power potions and 1 piece of a map. &lt;br&gt;After collecting all the pieces of a level, the player will be able to unlock a part of the land containing the next levels.&amp;nbsp;" style="text;html=1;strokeColor=none;fillColor=none;align=left;verticalAlign=top;whiteSpace=wrap;rounded=0;fontSize=10;" vertex="1" parent="1"><mxGeometry x="5" y="339" width="407" height="88" as="geometry"/></mxCell><mxCell id="15" value="&lt;b&gt;How to play&lt;/b&gt;" style="text;html=1;strokeColor=none;fillColor=none;align=left;verticalAlign=middle;whiteSpace=wrap;rounded=0;fontSize=16;" vertex="1" parent="1"><mxGeometry x="5" y="317" width="113" height="20" as="geometry"/></mxCell></root></mxGraphModel></diagram><diagram name="Characters" id="hsFhtbUjHSnuLbDM5qZh"><mxGraphModel dx="1436" dy="375" grid="0" gridSize="9" guides="1" tooltips="1" connect="1" arrows="1" fold="1" page="1" pageScale="1" pageWidth="850" pageHeight="300" math="0" shadow="0"><root><mxCell id="OkCfsi-9qfUPa8of6NRW-0"/><mxCell id="OkCfsi-9qfUPa8of6NRW-1" parent="OkCfsi-9qfUPa8of6NRW-0"/><mxCell id="OkCfsi-9qfUPa8of6NRW-15" value="Enemies" style="text;html=1;strokeColor=none;fillColor=none;align=left;verticalAlign=middle;whiteSpace=wrap;rounded=0;fontSize=14;fontStyle=1" parent="OkCfsi-9qfUPa8of6NRW-1" vertex="1"><mxGeometry x="-846" y="116" width="83" height="21" as="geometry"/></mxCell><mxCell id="OkCfsi-9qfUPa8of6NRW-16" value="Enemies" style="text;html=1;strokeColor=none;fillColor=none;align=left;verticalAlign=middle;whiteSpace=wrap;rounded=0;fontSize=14;fontStyle=1" parent="OkCfsi-9qfUPa8of6NRW-1" vertex="1"><mxGeometry x="-846" y="8" width="83" height="21" as="geometry"/></mxCell><mxCell id="OkCfsi-9qfUPa8of6NRW-39" value="" style="shape=link;fontSize=14;labelBackgroundColor=#ffffff;spacing=1;rounded=0;sketch=0;fillColor=#6a00ff;strokeColor=#BFBCCC;width=0;" parent="OkCfsi-9qfUPa8of6NRW-1" edge="1"><mxGeometry width="100" relative="1" as="geometry"><mxPoint x="-834" y="219" as="sourcePoint"/><mxPoint x="-272" y="219" as="targetPoint"/></mxGeometry></mxCell><mxCell id="OkCfsi-9qfUPa8of6NRW-40" value="" style="group;strokeColor=#f0f0f0;perimeterSpacing=1;rounded=0;shadow=0;sketch=0;glass=0;" parent="OkCfsi-9qfUPa8of6NRW-1" vertex="1" connectable="0"><mxGeometry x="-828" y="137" width="195" height="70" as="geometry"/></mxCell><mxCell id="OkCfsi-9qfUPa8of6NRW-5" value="Crabby" style="text;html=1;strokeColor=none;fillColor=none;align=left;verticalAlign=middle;whiteSpace=wrap;rounded=0;" parent="OkCfsi-9qfUPa8of6NRW-40" vertex="1"><mxGeometry width="195" height="26.3768115942029" as="geometry"/></mxCell><mxCell id="OkCfsi-9qfUPa8of6NRW-7" value="Crab&lt;br&gt;Attack: Pinch with Claws&lt;br&gt;Power Attack: No" style="text;html=1;strokeColor=none;fillColor=none;align=left;verticalAlign=top;whiteSpace=wrap;rounded=0;fontSize=10;" parent="OkCfsi-9qfUPa8of6NRW-40" vertex="1"><mxGeometry x="40" y="21.304347826086957" width="155" height="48.69565217391305" as="geometry"/></mxCell><mxCell id="OkCfsi-9qfUPa8of6NRW-8" value="" style="shape=image;verticalLabelPosition=bottom;labelBackgroundColor=#ffffff;verticalAlign=top;aspect=fixed;imageAspect=0;image=data:image/png,iVBORw0KGgoAAAANSUhEUgAAACAAAAAgCAYAAABzenr0AAAAAXNSR0IArs4c6QAAAARnQU1BAACxjwv8YQUAAAAJcEhZcwAADsMAAA7DAcdvqGQAAAHdSURBVFhH7ZS9SgNBEMc34VoDIhYR0omCaGOsEkznI9hYCKKgja3gEwg+gRZBsPUtlFgZQRRB24CpRIgPoP43M8ns3n7cRcTmfhB2dud79jaqoKCg4L8p0Rqkvrr+RaLq3t8YPiFdbhBMBgTYS6Q+pMtKmdYRV/t1oytmrd4iKU1IFyNVAGg3FlJF3HWvSUoT0sVwFiDBvaLDh8M93am855AuK2V0yj+M30dlZYqkNCEd4Pi0NUjspIPHT5Lc+AIBqeNpcGOb5119bpO4Eu7evhoBsM425pX6CYLvQ3aMwLYOMXeV0n6hqYIEyWxkcgR12YRAEW1l+g2nMCxKUnKNDXDy2P2GwHRiE9CvAIn+AsRFEbgS309PgDuVH8ok3SMgYD/sY9dXxthhBGOMyzUNDuwjpg9h3DmJGi7kN9+AxFUkGh8VIOFrsXGN02UnCV0Bpu8tgEQD/s//eDlW04snet3Y6uizLMhXxiS0OtmpVtTcclW9PfXVRX9gJWyps+0Zkse2APbsB+DrI9cEZELm4PKdpDiuCXgLqDWPaDem1zklaYzLzgV8cxdQay7RyZBe55kkE9tOwj4TFQBcXecBcXzJgfMQoAh+YnhKvgA+svoHgyIIibkLAHF/pb4By5wv6M1qRS8AAAAASUVORK5CYII=;" parent="OkCfsi-9qfUPa8of6NRW-40" vertex="1"><mxGeometry x="5" y="29.420289855072465" width="32" height="32" as="geometry"/></mxCell><mxCell id="OkCfsi-9qfUPa8of6NRW-46" value="" style="group;strokeColor=#f0f0f0;" parent="OkCfsi-9qfUPa8of6NRW-1" vertex="1" connectable="0"><mxGeometry x="-828" y="29" width="195" height="72" as="geometry"/></mxCell><mxCell id="OkCfsi-9qfUPa8of6NRW-2" value="Captain Rough" style="text;html=1;strokeColor=none;fillColor=none;align=left;verticalAlign=middle;whiteSpace=wrap;rounded=0;" parent="OkCfsi-9qfUPa8of6NRW-46" vertex="1"><mxGeometry width="195" height="29" as="geometry"/></mxCell><mxCell id="OkCfsi-9qfUPa8of6NRW-3" value="" style="shape=image;verticalLabelPosition=bottom;labelBackgroundColor=#ffffff;verticalAlign=top;aspect=fixed;imageAspect=0;image=data:image/png,iVBORw0KGgoAAAANSUhEUgAAACAAAAAgCAYAAABzenr0AAAAAXNSR0IArs4c6QAAAARnQU1BAACxjwv8YQUAAAAJcEhZcwAADsMAAA7DAcdvqGQAAAI8SURBVFhH7ZU/SAMxFMZTcdSCuli3LtZBF6uLooJQ0MFJxUlQBP8giJNLFxcR6iKCg4JUEATp6KBQEFRw0bq4WBfHuuhQ3avf494Z09w16Sku/UH6ctck78tL3jtRo8Z/E3Kslnj3QMnp+pK7v/Zdxw/PiXDeGx2jfktHlKwX52c7VYvQTmLnt8+nYmR0hd7BiRcYE0REGRCwOJ4qwSaTGbJ+4H80Z7oVdY41oic+SE3tB8FKwF9gJABnjN3e5a6oAe7jPd+TarCOwNLE1g8bFLq1ugtkmoKMmiWmGVEH5+wMoQwSTsBrmGZF2RHwTlADwOvjs9t08HvehF+90BHiCMhF5zcwLUyedyAopnegbJCJmIO+dqf3zdzNE1nbcqwVsD815DwJMX9y6eY+ch7Ow12N9KwyuZezFmBUB7zKbkOslVoQjATI1Q+hLj680/NH/oUawO6r4Ue4+PzlIwA4Bgb/yc9MNjUjEmuH1Lc5BncgnGcW4rQ77FIVEY37V0R2nkzExEY2TyLkC80pjvREn9OUBLBzhkXYgMuJObORsEgXivRudnWd7PL0MNndowvqw6a310lAvaxSRpdqflBm3DgPEqpzlXr8yOenOpZTTr1octSYts6IEF8RQJh1O1ehc4IAhoXoyB73Oz0hmmKb2tRUj6CQfxORWDNZRi7T7h2AZXSfYt3HSP1UY2EWoF5CGXYO3A7Dk1gEfxW9wDgWAgFAdlAJrQBOQeS732I2Y73wjACotKDNWD1CfAIWHEcY6Npf8AAAAABJRU5ErkJggg==;" parent="OkCfsi-9qfUPa8of6NRW-46" vertex="1"><mxGeometry x="5" y="24" width="32" height="32" as="geometry"/></mxCell><mxCell id="OkCfsi-9qfUPa8of6NRW-4" value="Pirate&lt;br&gt;Attack: Sword / Guns&lt;br&gt;Power Attack: No&lt;br&gt;" style="text;html=1;strokeColor=none;fillColor=none;align=left;verticalAlign=top;whiteSpace=wrap;rounded=0;fontSize=10;" parent="OkCfsi-9qfUPa8of6NRW-46" vertex="1"><mxGeometry x="40" y="24" width="106" height="48" as="geometry"/></mxCell><mxCell id="OkCfsi-9qfUPa8of6NRW-49" value="" style="group;strokeColor=#f0f0f0;" parent="OkCfsi-9qfUPa8of6NRW-1" vertex="1" connectable="0"><mxGeometry x="-624" y="138" width="195" height="70" as="geometry"/></mxCell><mxCell id="OkCfsi-9qfUPa8of6NRW-43" value="Hunter Shark" style="text;html=1;strokeColor=none;fillColor=none;align=left;verticalAlign=middle;whiteSpace=wrap;rounded=0;" parent="OkCfsi-9qfUPa8of6NRW-49" vertex="1"><mxGeometry width="195" height="26.3768115942029" as="geometry"/></mxCell><mxCell id="OkCfsi-9qfUPa8of6NRW-44" value="Shark&lt;br&gt;Attack: Pinch with Claws&lt;br&gt;Power Attack: No" style="text;html=1;strokeColor=none;fillColor=none;align=left;verticalAlign=top;whiteSpace=wrap;rounded=0;fontSize=10;" parent="OkCfsi-9qfUPa8of6NRW-49" vertex="1"><mxGeometry x="40" y="21.304347826086957" width="155" height="48.69565217391305" as="geometry"/></mxCell><mxCell id="OkCfsi-9qfUPa8of6NRW-47" value="" style="shape=image;verticalLabelPosition=bottom;labelBackgroundColor=#ffffff;verticalAlign=top;aspect=fixed;imageAspect=0;image=data:image/png,iVBORw0KGgoAAAANSUhEUgAAACAAAAAeCAYAAABNChwpAAAAAXNSR0IArs4c6QAAAARnQU1BAACxjwv8YQUAAAAJcEhZcwAADsMAAA7DAcdvqGQAAAG9SURBVFhH7ZS/L0RBEMeXTutVFOIqGgmOUKCTEJFoNFqVSPQKceI/kIjKX6CRiFD7kRDOSSTiqhMFhTxKJfmOnTP3sm93HicK90kuM5Obm/nu7OyZBg3+miZrVeT7R9+tG6R4dayqrRaA5hOTSzbyE99VzEVlTyVCJYCbt3W1UvxUfiHrg0VIXIKarf1VBnPT9HFdYVCAHD1Orjk9g6aAJ4E6SRHqCfD4641aQJaTu8AUDg82bPRFcAld9+aDrwtLCHj8aS9CJWCnIyI/GuokC+Lze4phJbMPMYmQAnzP0StANkfhEDJXLqBPgGoHUPCyeES+z2pEJgkKuH1ut56OrPmpo+HlW2vpoXjqZNMM5MeqsWT17YYmsD+yWI1xBbyAkuR1eAVwEdkUxZMkv+f7j7pzZBk8w28JkHBxicxJaw4yCQB8Dfy20+AnlwTC+Leu5sArAECEFOD6N3NNheHppD1FlQDrEli21/KyjT4Znzu1npu05kAlYHdhxUbGXJcerVdLb1/t8+O8wtl2/QTMbK2TDYH8ugooDM/bKFxQ5iMX/EgAQFFeNCyVryDIkq8SAFDUukEBIGv+f8WYD3tA/8QS2WEVAAAAAElFTkSuQmCC;" parent="OkCfsi-9qfUPa8of6NRW-49" vertex="1"><mxGeometry x="5" y="30.438164251207755" width="32" height="30" as="geometry"/></mxCell><mxCell id="OkCfsi-9qfUPa8of6NRW-54" value="" style="group" parent="OkCfsi-9qfUPa8of6NRW-1" vertex="1" connectable="0"><mxGeometry x="-418" y="137" width="196" height="71" as="geometry"/></mxCell><mxCell id="OkCfsi-9qfUPa8of6NRW-51" value="" style="rounded=0;whiteSpace=wrap;html=1;shadow=0;glass=0;sketch=0;strokeColor=#f0f0f0;fillColor=none;fontSize=14;align=left;" parent="OkCfsi-9qfUPa8of6NRW-54" vertex="1"><mxGeometry width="195" height="70" as="geometry"/></mxCell><mxCell id="OkCfsi-9qfUPa8of6NRW-50" value="" style="shape=image;verticalLabelPosition=bottom;labelBackgroundColor=#ffffff;verticalAlign=top;aspect=fixed;imageAspect=0;image=data:image/png,iVBORw0KGgoAAAANSUhEUgAAACIAAAAeCAYAAABJ/8wUAAAAAXNSR0IArs4c6QAAAgxJREFUWIXtlj9LI0EYh589bSwMmHQpDg/hiiC4SQrDQcr0aWyuTRX8BFcE9shnkBRyn+Ca1NpduEPBjXsggRMOJYKNrILXeuxVs05mZzaTXUUO/FUzs+/78uzvffcPvOpVz6B6rRnVa83oxSGu9g+iq/2D6CmB3uRJHnZ7DLs9ngImE0h70E8A5YXJBDLs9uJ1oVIEwGt0csHkag3A/eQWALdazgWTGaRQKcZuqNp69+F5Qeq1ZiS3RZVwZXltaWFXMjtyP7mN26JzZlFXlm0D09wQQDOF15YiLnDkfLH2xyNHjU8c6ADE2mt0cKtlY2xweo139EV7Tb6J9qCfgDE6IgDSZkKVWy0zrKbHB6fX2nOtI6INhUpxxnb1RaaT7JqaLxyzao1pFtqDPl/flgAoba8DEB5fUtpeJzy+jON2pmGihcIFEwQorVEhRAG56M40hGn4mCStBaicKwBAP6RaEFny4Im+T27KfF4xD+vkBuARzAZASNsasfbHI0d2yXZGZvYp7ZCVcCQtyfYJMj0ZC4HYFFbfFaoLWTTXMiDxRT3xv3H361O8b338npqfaUZMIO6uG+9/nz8kYjbem80N9oK5MNbfGrmo9vxwdr/a2gTSATOBCBdWW5v8OTzj4e6v8/PihzG+DpHX6IAPAXr4hUH88ciJCwMeZ1Y5Hlj/l1jNiJA8tPMc+W/1D17i74q+GLTtAAAAAElFTkSuQmCC;" parent="OkCfsi-9qfUPa8of6NRW-54" vertex="1"><mxGeometry x="8.003333333333387" y="31" width="34" height="30" as="geometry"/></mxCell><mxCell id="OkCfsi-9qfUPa8of6NRW-52" value="Salty Star" style="text;html=1;strokeColor=none;fillColor=none;align=left;verticalAlign=middle;whiteSpace=wrap;rounded=0;" parent="OkCfsi-9qfUPa8of6NRW-54" vertex="1"><mxGeometry x="1" y="1" width="195" height="26.3768115942029" as="geometry"/></mxCell><mxCell id="OkCfsi-9qfUPa8of6NRW-53" value="Starfish&lt;br&gt;Attack: Roll&lt;br&gt;Power Attack: No" style="text;html=1;strokeColor=none;fillColor=none;align=left;verticalAlign=top;whiteSpace=wrap;rounded=0;fontSize=10;" parent="OkCfsi-9qfUPa8of6NRW-54" vertex="1"><mxGeometry x="41" y="22.304347826086968" width="155" height="48.69565217391305" as="geometry"/></mxCell></root></mxGraphModel></diagram></mxfile>